# ProBuilder 5.1.1
# https://unity3d.com/unity/features/worldbuilding/probuilder
# 07/02/2024 16:19:00

mtllib ./BronzeIngot.mtl
o BronzeIngot

g BronzeIngot
v -32.38054 0.4 -16.55207
v -33.10107 0.4 -16.55207
v -32.42076 0.5906781 -16.60995
v -33.06085 0.5906781 -16.60995
v -33.10107 0.4 -16.94844
v -33.06085 0.5906781 -16.89056
v -32.38054 0.4 -16.94844
v -32.42076 0.5906781 -16.89056

vt 0 -0.2042057
vt -1.200894 -0.2042057
vt -0.06703854 -0.007985489
vt -1.133856 -0.007985489
vt 0.8653171 -0.3983098
vt 0.5482173 -0.3983098
vt 0.8190112 -0.1961903
vt 0.594523 -0.1961903
vt 1.200894 0.1293729
vt 0 0.1293729
vt 1.133856 0.325593
vt 0.06703854 0.325593
vt -0.5482173 8.429385E-17
vt -0.8653171 -3.616049E-17
vt -0.594523 0.2021195
vt -0.8190112 0.2021195
vt 0.06703854 0.8190112
vt 1.133856 0.8190112
vt 0.06703854 0.594523
vt 1.133856 0.594523
vt 0 0.5482173
vt -1.200894 0.5482173
vt 0 0.8653171
vt -1.200894 0.8653171

vn 0 0.2359894 1.214694
vn -0.5660357 0.3316777 1.559396E-16
vn 0 0.2359883 -1.214695
vn 0.5660357 0.3316777 1.559396E-16
vn 0 1 2.220446E-17
vn 0 -1 -4.701539E-16

usemtl M_Bronze
f 3/3/1 4/4/1 2/2/1 1/1/1
f 4/7/2 6/8/2 5/6/2 2/5/2
f 6/11/3 8/12/3 7/10/3 5/9/3
f 8/15/4 3/16/4 1/14/4 7/13/4
f 8/19/5 6/20/5 4/18/5 3/17/5
f 1/23/6 2/24/6 5/22/6 7/21/6

