# ProBuilder 5.1.1
# https://unity3d.com/unity/features/worldbuilding/probuilder
# 07/02/2024 11:58:11

mtllib ./Lingot_(3).mtl
o Lingot (3)

g Lingot (3)
v -4.534 0 -16.07468
v -5.734894 0 -16.07468
v -4.601038 0.1906781 -16.12099
v -5.667855 0.1906781 -16.12099
v -5.734894 1.136358E-16 -16.39178
v -5.667855 0.1906781 -16.34548
v -4.534 1.136358E-16 -16.39178
v -4.601038 0.1906781 -16.34548

vt 0 -0.2042057
vt -1.200894 -0.2042057
vt -0.06703854 -0.007985489
vt -1.133856 -0.007985489
vt 0.8653171 -0.3983098
vt 0.5482173 -0.3983098
vt 0.8190112 -0.1961903
vt 0.594523 -0.1961903
vt 1.200894 0.1293729
vt 0 0.1293729
vt 1.133856 0.325593
vt 0.06703854 0.325593
vt -0.5482173 8.429385E-17
vt -0.8653171 -3.616049E-17
vt -0.594523 0.2021195
vt -0.8190112 0.2021195
vt 0.06703854 0.8190112
vt 1.133856 0.8190112
vt 0.06703854 0.594523
vt 1.133856 0.594523
vt 0 0.5482173
vt -1.200894 0.5482173
vt 0 0.8653171
vt -1.200894 0.8653171

vn 0 0.2359894 0.9717556
vn -0.9433928 0.3316777 1.188599E-16
vn 0 0.2359883 -0.9717559
vn 0.9433928 0.3316777 1.188599E-16
vn 0 1 0
vn 0 -1 -3.583596E-16

usemtl M_Gold
f 3/3/1 4/4/1 2/2/1 1/1/1
f 4/7/2 6/8/2 5/6/2 2/5/2
f 6/11/3 8/12/3 7/10/3 5/9/3
f 8/15/4 3/16/4 1/14/4 7/13/4
f 8/19/5 6/20/5 4/18/5 3/17/5
f 1/23/6 2/24/6 5/22/6 7/21/6

